<svg version="1.1" xmlns="http://www.w3.org/2000/svg" xmlns:xlink="http://www.w3.org/1999/xlink" width="250.66px" height="71.37px" viewBox="0,0,256,72.88281"><g fill="none" fill-rule="nonzero" stroke="none" stroke-width="none" stroke-linecap="butt" stroke-linejoin="miter" stroke-miterlimit="10" stroke-dasharray="" stroke-dashoffset="0" font-family="none" font-weight="none" font-size="none" text-anchor="none" style="mix-blend-mode: normal"><g transform="translate(-0.00306,1.33664) scale(1.0213,1.0213)"><g id="_レイヤー_1-2"><path d="M213.77,49.66c-1.16,-0.11 -2.01,-0.82 -2.38,-2c-0.18,-0.48 -0.18,-1.02 -0.14,-1.38c0.14,-1.42 1.03,-2.49 2.32,-2.79c8.07,-1.85 12.26,-6.07 13.6,-13.7c0.02,-0.12 0.04,-0.24 0.06,-0.36l-17.57,-1.73c-1.63,-0.16 -2.61,-1.47 -2.43,-3.27c0.18,-1.8 1.38,-2.79 3.06,-2.62l17.81,1.75c0.28,-2.21 0.52,-4.58 0.74,-6.79c-5.41,0.2 -10.93,0.14 -14.64,-0.18c-1.69,-0.17 -2.68,-1.27 -2.67,-2.94l0.02,-0.29c0.16,-1.62 1.44,-2.78 2.92,-2.64c4.17,0.41 10.39,0.41 16.23,0c5.54,-0.38 10.59,-1.14 13.86,-2.1c0.43,-0.17 0.96,-0.18 1.31,-0.14c1.08,0.11 1.97,0.78 2.44,1.86c0.2,0.65 0.26,1.13 0.22,1.58c-0.12,1.24 -0.98,2.24 -2.18,2.55c-3.35,0.86 -7.42,1.55 -11.28,1.94c-0.27,2.7 -0.53,5.28 -0.83,7.75l13.92,1.37c1.66,0.16 2.66,1.44 2.49,3.17c-0.17,1.73 -1.41,2.89 -3.07,2.72l-14.15,-1.39c-0.08,0.5 -0.16,0.98 -0.23,1.44c-1.73,9.68 -7.97,15.92 -18.04,18.06c-0.43,0.12 -0.88,0.16 -1.38,0.11z" fill="#1c1c1c" stroke="none" stroke-width="0"></path><path d="M200.75,22.21l-0.08,-0.02l-0.34,-0.04c-1.66,-0.19 -2.97,0.59 -3.18,1.85c-1.38,5.68 -3.87,10.46 -6.99,13.44c-3.49,3.35 -9.4,5.78 -15.38,6.32c-1.4,0.1 -2.39,0.93 -2.52,2.1c-0.04,0.31 0,0.61 0.04,0.94c0.25,1.19 1.26,2.03 2.62,2.19c0.18,0.02 0.49,0.06 0.78,0.03c7.07,-0.45 14.17,-3.35 18.98,-7.74c3.95,-3.64 7.06,-9.38 8.56,-15.84l0.04,-0.31c0.1,-0.82 -0.1,-2.3 -2.52,-2.93z" fill="#1c1c1c" stroke="none" stroke-width="0"></path><path d="M150.76,49.37c-1.41,0.12 -2.43,-0.62 -2.54,-1.85l-1.15,-11.88c0,-0.08 -0.01,-0.17 -0.02,-0.25c-0.34,0.59 -0.71,1.19 -1.13,1.8c-2.82,4.05 -6.78,7.69 -10.59,9.76c-0.34,0.18 -0.66,0.28 -1.02,0.31c-0.89,0.08 -1.68,-0.35 -2.1,-1.15c-0.19,-0.3 -0.32,-0.68 -0.35,-1.06c-0.08,-0.94 0.38,-1.78 1.2,-2.19c4.41,-2.37 8.74,-6.82 11.33,-11.57l-11.1,1c-1.11,0.1 -2.02,-0.76 -2.12,-2c-0.1,-1.24 0.62,-2.28 1.74,-2.37l13.26,-1.22l-0.3,-3.07c-0.1,-1.19 0.78,-2.1 2.15,-2.22c1.55,-0.13 2.33,0.78 2.41,1.74l0.33,3.14l5.09,-0.44c1.12,-0.1 1.97,0.73 2.08,2c0.13,1.5 -0.76,2.25 -1.71,2.33l-5.06,0.47l1.68,16.4c0.11,1.24 -0.76,2.18 -2.1,2.3z" fill="#1c1c1c" stroke="none" stroke-width="0"></path><g fill="#ff861a" stroke="none" stroke-width="0"><path d="M102.62,21.25l0.45,-10.24c0,-0.15 0.02,-0.32 0.1,-0.44c0.1,-0.15 0.29,-0.18 0.45,-0.2c1.7,-0.18 3.41,-0.15 5.11,-0.12c1.94,0.03 3.88,0.06 5.82,0.09c0.42,3.25 0.57,6.55 0.43,9.84M113.47,19.68c-1.4,0.16 -2.8,0.32 -4.2,0.25c-0.95,-0.05 -1.9,-0.2 -2.85,-0.23c-0.95,-0.03 -1.94,0.09 -2.77,0.55"></path><g><path d="M103.87,21.25l0.23,-5.24l0.11,-2.56l0.05,-1.22l0.03,-0.73v-0.24c0.05,-0.36 0.01,-0.33 -0.12,0.09l-0.55,0.32c0.74,-0.27 1.77,-0.17 2.55,-0.18c0.93,-0.01 1.87,0 2.8,0.02c1.86,0.03 3.72,0.06 5.58,0.09l-1.25,-1.25c0.41,3.26 0.56,6.55 0.43,9.84c-0.06,1.61 2.44,1.61 2.5,0c0.13,-3.29 -0.02,-6.58 -0.43,-9.84c-0.09,-0.68 -0.5,-1.24 -1.25,-1.25c-2.02,-0.03 -4.04,-0.07 -6.06,-0.1c-0.97,-0.01 -1.95,-0.03 -2.92,0c-0.97,0.03 -2.24,-0.08 -3.03,0.48c-0.87,0.62 -0.73,1.81 -0.77,2.75l-0.13,2.93l-0.27,6.09c-0.07,1.61 2.43,1.61 2.5,0z"></path><path d="M113.48,18.44c-1.79,0.2 -3.54,0.33 -5.34,0.15c-1.8,-0.18 -3.5,-0.25 -5.12,0.59c-0.6,0.31 -0.78,1.15 -0.45,1.71c0.36,0.61 1.11,0.76 1.71,0.45c1.28,-0.66 2.87,-0.33 4.24,-0.21c1.67,0.15 3.31,0 4.96,-0.19c0.67,-0.08 1.25,-0.52 1.25,-1.25c0,-0.62 -0.57,-1.33 -1.25,-1.25z"></path></g></g><path d="M120.82,20.07h-8.73c-0.44,0.02 -0.89,0.01 -1.33,0.03c-0.49,0.02 -0.99,0.03 -1.48,0.03c-0.47,0 -0.94,-0.02 -1.41,-0.03c-0.41,0 -0.83,0.02 -1.24,-0.03h-8.37c-3.45,0 -5.35,1.62 -5.35,4.55v6.54c0,1.27 1.17,2.19 2.78,2.19c1.61,0 2.66,-0.87 2.66,-2.23v-5.87c0,-0.73 0,-0.8 1.21,-0.8h20.37c1.21,0 1.21,0.17 1.21,0.8v0.25c-0.29,4.74 -1.74,8.39 -4.42,11.16c-2.85,2.96 -7.5,5.14 -13.45,6.3c-1.26,0.26 -2.04,1.12 -2.04,2.24c0,0.16 0.03,0.35 0.07,0.57l0.04,0.19c0.31,0.98 1.27,1.58 2.5,1.58c0.2,0 0.48,0 0.71,-0.05c6.46,-1.13 11.82,-3.56 15.49,-7.02c4.05,-3.78 6.29,-8.8 6.66,-14.96v-0.48c0,-3.25 -2.04,-4.96 -5.89,-4.96z" fill="#1c1c1c" stroke="none" stroke-width="0"></path><path d="M56.18,48.56c-1.63,-0.08 -2.68,-1.08 -2.61,-2.5l0.58,-11.55c0.08,-1.54 0.17,-2.87 0.28,-4.07c-1.02,0.9 -2.04,1.73 -3.05,2.49c-0.55,0.43 -1.21,0.64 -1.9,0.6c-0.83,-0.04 -1.62,-0.46 -2.09,-1.13c-0.37,-0.47 -0.58,-1.15 -0.54,-1.84c0.04,-0.89 0.48,-1.69 1.19,-2.19c2.27,-1.62 4.46,-3.53 6.7,-5.82l0.1,-1.95c0.07,-1.35 1.21,-2.21 2.84,-2.13c0.19,0 0.37,0.03 0.54,0.06c0.9,-1.13 1.73,-2.32 2.5,-3.51l-9.67,-0.48c-1.4,-0.07 -2.29,-1.18 -2.21,-2.76c0.08,-1.58 1.07,-2.59 2.48,-2.52l12.36,0.62c0.75,-1.54 1.46,-3.17 2.11,-4.84c0.39,-1.16 1.41,-1.81 2.77,-1.74c0.17,0 0.4,0.02 0.67,0.11c1.36,0.36 2.14,1.25 2.08,2.39c-0.01,0.25 -0.07,0.47 -0.13,0.68l-0.04,0.17l-0.19,0.46c-0.42,1.01 -0.85,2.04 -1.32,3.06l21.77,1.09c1.37,0.07 2.24,1.18 2.16,2.76c-0.08,1.58 -1.08,2.59 -2.43,2.53l-24.2,-1.21c-1.78,3.1 -4.04,6.24 -6.73,9.34l-0.9,18c0.41,-0.79 1.16,-1.24 2.1,-1.19l10.6,0.53l0.56,-11.1l-8.56,-0.43c-1.38,-0.07 -2.29,-1.18 -2.21,-2.71c0.08,-1.53 1.07,-2.55 2.47,-2.48l8.56,0.43l0.33,-6.65c0.07,-1.43 1.24,-2.3 2.99,-2.22c1.75,0.08 2.73,1.06 2.65,2.5l-0.33,6.65l9.89,0.49c1.37,0.07 2.24,1.16 2.17,2.71c-0.07,1.55 -1.05,2.55 -2.43,2.48l-9.89,-0.49l-0.56,11.1l12.08,0.6c1.37,0.07 2.24,1.16 2.17,2.71c-0.07,1.55 -1.05,2.59 -2.43,2.53l-28.32,-1.42c-0.94,-0.05 -1.64,-0.58 -1.97,-1.42l-0.05,1.02c-0.07,1.39 -1.28,2.3 -2.94,2.22z" fill="#1c1c1c" stroke="none" stroke-width="0"></path><path d="M31.25,48.72c-1.57,0.22 -2.75,-0.58 -2.94,-1.98l-1.71,-12.43l-4.38,0.6c-0.39,0.05 -0.52,0.12 -0.56,0.15c0,0.01 0,0.09 0.02,0.24l1.29,9.38c0.19,1.37 -0.7,2.39 -2.26,2.61c-1.56,0.22 -2.79,-0.52 -2.97,-1.89l-1.39,-10.06c-0.12,-0.84 -0.08,-1.58 0.11,-2.22c-0.31,0.15 -0.67,0.26 -1.06,0.31c-1.49,0.2 -2.65,-0.56 -2.83,-1.86l-0.46,-3.34c-0.4,-2.9 0.94,-4.52 4.08,-4.96l23.37,-3.22c3.21,-0.44 4.96,0.75 5.36,3.65l0.47,3.38c0.18,1.28 -0.8,2.36 -2.31,2.57c-0.3,0.04 -0.59,0.04 -0.86,0c0.31,0.55 0.53,1.22 0.64,2.02l0.99,7.18c0.44,3.16 -1.07,5.01 -4.48,5.48c-0.89,0.12 -2.18,0.24 -3.27,0.09c-1.18,-0.13 -2.03,-0.93 -2.19,-2.1c-0.02,-0.16 -0.05,-0.38 -0.02,-0.63c0.06,-1.41 1.02,-2.17 1.95,-2.3c0.17,-0.02 0.38,-0.05 0.67,0c0.62,0.05 1.23,0.06 1.57,0.01c0.3,-0.04 0.47,-0.08 0.56,-0.11c0,-0.07 -0.01,-0.19 -0.04,-0.37l-0.81,-5.85c-0.02,-0.17 -0.06,-0.23 -0.07,-0.24v0c-0.01,0 -0.15,-0.04 -0.56,0.01l-5.34,0.74l1.71,12.43c0.19,1.4 -0.73,2.49 -2.3,2.7zM17.38,28.05c0,0 0,0.11 0.02,0.2l0.36,2.61c0.02,0.14 0.03,0.28 0.02,0.42c0.71,-0.51 1.67,-0.85 2.87,-1.02l5.29,-0.73l-0.36,-2.63l-7.9,1.09c-0.15,0.02 -0.24,0.04 -0.29,0.06zM37.34,27.96c1.13,-0.16 2.08,-0.11 2.87,0.12c-0.02,-0.09 -0.04,-0.18 -0.06,-0.27l-0.37,-2.65c-0.01,-0.09 -0.03,-0.15 -0.04,-0.19c-0.06,0 -0.17,0 -0.35,0.02l-8.59,1.18l0.36,2.63l6.16,-0.85zM7.07,51.21c-0.56,0.08 -1.07,0 -1.56,-0.25c-0.85,-0.34 -1.43,-1.05 -1.54,-1.89c-0.09,-0.65 0.05,-1.33 0.42,-2.01c1.59,-3.4 3.11,-8.93 3.92,-12.62c0.22,-1.04 1.01,-1.78 2.06,-1.93c0.37,-0.05 0.76,-0.04 1.14,0.03c1.22,0.29 2.01,1.08 2.15,2.14c0.05,0.33 0.03,0.64 -0.07,1.01c-0.89,3.96 -2.61,9.97 -4.28,13.78c-0.45,0.98 -1.27,1.61 -2.24,1.74zM9.26,28.86c-0.75,0.1 -1.46,-0.06 -1.99,-0.47c-1.52,-1.04 -3.82,-2.52 -5.95,-3.48c-0.68,-0.3 -1.19,-1.01 -1.29,-1.79c-0.08,-0.6 0.06,-1.2 0.41,-1.74c0.43,-0.71 1.13,-1.19 1.98,-1.3c0.46,-0.06 0.93,0 1.47,0.18c2.13,0.91 4.8,2.39 6.55,3.64c0.73,0.55 1.17,1.24 1.27,1.96c0.08,0.58 -0.08,1.23 -0.45,1.79c-0.51,0.68 -1.24,1.11 -1.99,1.21zM19.27,21.66c-3.17,0.44 -4.77,-0.71 -5.19,-3.72l-0.41,-2.96l-0.54,0.07c-0.52,0.07 -0.98,0 -1.37,-0.19c-0.03,0.51 -0.22,1 -0.55,1.44c-0.37,0.56 -1.06,0.98 -1.87,1.09c-0.72,0.1 -1.45,-0.1 -2.05,-0.55c-1.52,-1.15 -3.93,-2.61 -6,-3.63c-0.7,-0.38 -1.17,-1.07 -1.27,-1.82c-0.09,-0.65 0.09,-1.33 0.49,-1.85c0.38,-0.65 1.09,-1.13 1.94,-1.24c0.55,-0.08 1.12,0.02 1.61,0.28c1.91,0.85 4.53,2.44 6.48,3.91c0,0 0,0 0.01,0.01c0.02,-1.17 0.72,-1.97 1.92,-2.14l0.54,-0.07l-0.28,-2c-0.18,-1.33 0.71,-2.39 2.17,-2.59c1.46,-0.2 2.61,0.58 2.79,1.91l0.28,2l5.37,-0.74l-0.28,-2.05c-0.2,-1.42 0.63,-2.43 2.16,-2.64c1.53,-0.21 2.61,0.56 2.8,1.96l0.28,2.05l5.79,-0.8l-0.28,-2c-0.18,-1.31 0.73,-2.4 2.17,-2.59c1.44,-0.19 2.61,0.58 2.79,1.91l0.28,2l1.77,-0.24c1.36,-0.19 2.33,0.59 2.53,2.04c0.2,1.45 -0.52,2.46 -1.88,2.65l-1.77,0.24l0.41,2.96c0.41,2.97 -0.89,4.56 -4.08,5l-16.79,2.31zM34.74,14.85c0.21,-0.03 0.32,-0.06 0.39,-0.08c0,-0.03 0,-0.08 -0.01,-0.15l-0.35,-2.55l-5.79,0.8l0.38,2.72l5.39,-0.74zM19.02,17c0.07,0 0.18,0 0.35,-0.03l5.02,-0.69l-0.38,-2.72l-5.37,0.74l0.35,2.55c0,0.07 0.02,0.11 0.03,0.15z" fill="#1c1c1c" stroke="none" stroke-width="0"></path><circle cx="169.54" cy="24.81" r="7.12" fill="#ffffff" stroke="#1c1c1c" stroke-width="1"></circle><path d="M169.54,27.31c3.22,0 3.22,-5 0,-5c-3.22,0 -3.22,5 0,5z" fill="#231815" stroke="none" stroke-width="0"></path><g><path d="M109.2,0.35l9.8,9.22c0.26,0.23 0.09,0.66 -0.26,0.66h-19.61c-0.34,0 -0.51,-0.43 -0.27,-0.66l9.81,-9.22c0.15,-0.14 0.38,-0.14 0.53,0z" fill="#f4001a" stroke="none" stroke-width="0"></path><path d="M108.67,0.35l-9.81,9.22c-0.24,0.23 -0.07,0.66 0.27,0.66h19.61c0.34,0 0.51,-0.43 0.26,-0.66l-9.8,-9.22c-0.15,-0.14 -0.38,-0.14 -0.53,0z" fill="none" stroke="#f4001a" stroke-width="0.5"></path></g><g><path d="M111.32,13.27v2.88c0,0.27 -0.22,0.49 -0.49,0.49h-3.78c-0.28,0 -0.5,-0.21 -0.5,-0.49v-2.88c0,-0.27 0.22,-0.5 0.5,-0.5h3.78c0.27,0 0.49,0.23 0.49,0.5z" fill="#2fb7ff" stroke="none" stroke-width="0"></path><path d="M110.83,16.63h-3.78c-0.28,0 -0.5,-0.21 -0.5,-0.49v-2.88c0,-0.27 0.22,-0.5 0.5,-0.5h3.78c0.27,0 0.49,0.23 0.49,0.5v2.88c0,0.27 -0.22,0.49 -0.49,0.49z" fill="none" stroke="#2fb7ff" stroke-width="0.5"></path></g><circle cx="186.93" cy="23.79" r="7.12" fill="#ffffff" stroke="#1c1c1c" stroke-width="1"></circle><path d="M186.93,26.29c3.22,0 3.22,-5 0,-5c-3.22,0 -3.22,5 0,5z" fill="#231815" stroke="none" stroke-width="0"></path><text x="79.76" y="63.7" fill="#1c1c1c" stroke="none" stroke-width="1" font-family="HiraKakuStd-W8-83pv-RKSJ-H, &quot;Hiragino Kaku Gothic Std&quot;" font-weight="400" font-size="16" text-anchor="start">Stay Watch</text></g></g></g></svg>