<svg xmlns="http://www.w3.org/2000/svg" width="200" height="173.347" viewBox="0 0 200 173.347"><path d="M111.51,262.877a48.105,48.105,0,0,0-48.1,48.1c0,26.568,49.509,91.644,49.509,91.644s46.7-65.077,46.7-91.644a48.1,48.1,0,0,0-48.1-48.1Zm0,19.663a25.984,25.984,0,1,1-25.984,25.985,25.983,25.983,0,0,1,25.984-25.985Zm-62,70.612a9.6,9.6,0,0,0-6.459,3.082,8.278,8.278,0,0,0-1.487,2.5l-29.4,65.921a8.531,8.531,0,0,0-.27,5.812,8.043,8.043,0,0,0,2.34,3.511,7.961,7.961,0,0,0,5.869,2.248H202.915a8.657,8.657,0,0,0,8.209-5.759,8.531,8.531,0,0,0-.27-5.812l-29.4-65.921a8.29,8.29,0,0,0-1.487-2.5,9.6,9.6,0,0,0-6.459-3.082h-17.2c-2.57,4.963-5.318,9.908-8.1,14.705h21.212l23.938,53.662H29.657L53.6,367.856h22.46c-2.95-4.8-5.861-9.743-8.58-14.705Z" transform="translate(-11.509 -262.877)"/></svg>