<?xml version="1.0" standalone="no"?>
<!DOCTYPE svg PUBLIC "-//W3C//DTD SVG 20010904//EN"
 "http://www.w3.org/TR/2001/REC-SVG-20010904/DTD/svg10.dtd">
<svg version="1.0" xmlns="http://www.w3.org/2000/svg"
 width="908.000000pt" height="908.000000pt" viewBox="0 0 908.000000 908.000000"
 preserveAspectRatio="xMidYMid meet">
<metadata>
Created by potrace 1.14, written by Peter Selinger 2001-2017
</metadata>
<g transform="translate(0.000000,908.000000) scale(0.100000,-0.100000)"
fill="#000000" stroke="none">
<path d="M4268 9075 c-2 -2 -43 -6 -93 -10 -49 -3 -103 -8 -120 -10 -16 -2
-52 -7 -80 -10 -27 -3 -61 -7 -75 -10 -14 -2 -41 -7 -60 -9 -19 -3 -45 -8 -56
-10 -12 -2 -37 -7 -55 -10 -19 -3 -45 -8 -59 -11 -14 -3 -43 -10 -65 -15 -22
-4 -50 -11 -62 -14 -13 -3 -31 -8 -40 -10 -209 -48 -638 -205 -697 -255 -10
-9 -20 -15 -22 -13 -2 1 -28 -10 -57 -25 -28 -15 -55 -26 -59 -25 -5 1 -8 -3
-8 -8 0 -6 -4 -10 -9 -10 -10 0 -132 -70 -141 -80 -3 -3 -30 -21 -60 -39 -86
-53 -211 -147 -350 -266 -52 -44 -238 -233 -291 -296 -101 -117 -269 -348
-269 -368 0 -6 -4 -11 -9 -11 -5 0 -13 -10 -17 -22 -4 -13 -10 -25 -14 -28 -8
-6 -58 -96 -122 -220 -120 -234 -240 -575 -303 -855 -16 -71 -24 -113 -29
-150 -2 -16 -7 -41 -10 -55 -12 -48 -38 -230 -50 -350 -21 -211 -29 -656 -13
-810 6 -65 12 -104 32 -230 10 -63 17 -98 27 -135 6 -22 12 -53 15 -70 2 -16
8 -41 13 -55 5 -14 17 -54 26 -90 32 -130 118 -368 215 -600 39 -93 188 -389
257 -510 36 -63 74 -130 84 -149 11 -19 35 -59 54 -88 19 -29 34 -58 34 -63 0
-6 5 -10 10 -10 6 0 10 -4 10 -9 0 -15 276 -427 352 -526 5 -5 41 -53 81 -106
152 -203 255 -333 268 -337 5 -2 9 -8 9 -14 0 -5 6 -15 13 -22 6 -7 30 -35 52
-61 22 -27 46 -54 53 -61 6 -7 12 -15 12 -18 0 -3 10 -16 23 -29 43 -46 96
-107 93 -107 -2 0 17 -22 44 -50 27 -27 47 -50 45 -50 -2 0 6 -10 18 -23 12
-12 60 -65 107 -117 47 -52 119 -130 160 -175 112 -120 611 -616 729 -725 161
-149 172 -159 235 -214 32 -28 70 -62 85 -76 14 -14 57 -52 96 -85 38 -33 75
-64 81 -70 29 -26 74 -64 124 -105 62 -51 73 -60 95 -78 12 -11 20 -9 45 10
16 12 30 25 30 30 0 4 6 8 14 8 8 0 16 3 18 8 2 4 41 39 88 77 99 81 128 106
144 120 6 6 43 37 81 70 38 33 83 72 100 87 16 14 39 35 51 45 56 49 156 137
186 166 339 317 622 596 818 807 58 62 123 132 145 156 57 61 135 149 230 259
28 32 57 66 65 75 8 8 42 49 75 90 33 41 66 81 73 89 10 10 157 198 227 289 5
7 18 22 28 33 9 10 17 21 17 24 0 3 15 24 33 48 17 24 41 56 52 71 11 16 29
40 40 55 26 34 45 62 136 196 79 117 78 116 124 194 17 28 33 51 38 51 4 0 7
4 7 9 0 9 36 72 89 156 14 22 39 67 56 100 18 33 50 93 73 133 23 40 42 74 42
77 1 2 30 66 66 142 36 76 69 147 74 158 32 73 52 121 54 130 1 6 9 26 18 45
8 19 32 85 53 145 20 61 41 119 46 130 4 11 15 49 24 85 10 36 19 72 22 80 4
8 7 20 9 27 1 7 9 40 18 75 8 35 17 74 20 88 3 14 7 34 9 45 3 11 8 40 12 65
4 25 9 54 11 65 2 11 6 38 9 60 2 22 8 69 12 105 16 129 8 662 -12 795 -2 17
-7 55 -9 85 -3 30 -8 66 -10 80 -3 14 -8 48 -11 75 -5 44 -19 138 -23 150 -1
3 -2 6 -3 8 0 1 -3 16 -5 32 -2 17 -9 50 -14 75 -6 25 -13 56 -16 70 -3 14
-10 42 -15 63 -5 20 -13 54 -18 75 -35 142 -102 346 -164 492 -5 14 -12 34
-14 45 -2 11 -8 22 -13 23 -6 2 -10 11 -10 19 0 24 -133 282 -212 413 -88 145
-183 278 -295 411 -93 111 -267 288 -348 354 -27 22 -56 47 -65 55 -47 44
-235 180 -249 180 -4 0 -16 9 -26 20 -10 11 -22 20 -27 20 -5 0 -14 5 -21 10
-60 52 -436 240 -567 285 -3 1 -16 6 -30 12 -60 25 -340 113 -380 119 -8 2
-42 10 -76 18 -34 8 -73 17 -88 20 -14 3 -34 7 -44 10 -9 3 -31 8 -47 10 -17
3 -46 7 -65 10 -100 17 -203 29 -340 43 -53 5 -617 12 -622 8z m467 -1099 c44
-3 91 -8 105 -10 14 -3 45 -7 70 -10 25 -3 56 -9 70 -12 14 -3 39 -8 55 -11
30 -5 58 -11 63 -12 1 -1 4 -1 7 -2 2 0 19 -5 37 -10 33 -10 53 -15 86 -23 22
-5 159 -54 192 -68 14 -6 34 -14 45 -18 30 -12 247 -118 270 -132 128 -81 221
-142 223 -149 2 -5 8 -9 14 -9 18 0 139 -104 262 -225 112 -110 180 -186 246
-275 14 -18 35 -46 48 -61 12 -15 22 -30 22 -33 0 -9 43 -70 53 -74 4 -2 7 -9
7 -16 0 -7 11 -27 24 -45 23 -31 165 -310 170 -334 2 -7 9 -25 15 -42 15 -35
81 -232 87 -257 2 -10 6 -28 10 -40 3 -13 7 -34 10 -48 3 -14 9 -44 15 -68 5
-23 12 -59 15 -78 3 -20 8 -46 10 -58 3 -11 7 -44 9 -73 1 -28 5 -55 7 -60 3
-4 4 -29 4 -55 -1 -27 1 -48 4 -48 7 0 4 -256 -4 -359 -8 -104 -23 -206 -50
-336 -17 -85 -89 -331 -106 -365 -5 -8 -20 -44 -35 -80 -31 -72 -100 -214
-134 -272 -11 -21 -31 -55 -42 -75 -12 -21 -24 -40 -28 -43 -4 -3 -18 -23 -31
-45 -13 -22 -28 -44 -32 -50 -186 -239 -308 -368 -471 -498 -102 -81 -198
-150 -201 -145 -1 2 -30 44 -63 94 -74 111 -79 117 -173 216 -70 74 -208 186
-290 235 -37 23 -149 79 -212 107 -71 31 -248 83 -312 91 -17 2 -56 7 -86 12
-70 9 -289 9 -358 0 -137 -19 -198 -33 -322 -74 -69 -23 -258 -110 -270 -124
-3 -3 -16 -12 -30 -19 -57 -30 -182 -130 -267 -215 -51 -51 -93 -95 -93 -98 0
-4 -8 -15 -17 -25 -23 -24 -45 -56 -97 -136 -37 -57 -44 -63 -61 -54 -11 6
-22 14 -25 18 -3 4 -23 19 -45 33 -68 45 -89 61 -117 87 -14 14 -39 35 -55 47
-59 45 -209 198 -303 309 -97 114 -290 414 -289 448 1 5 -3 12 -9 15 -18 12
-106 220 -148 351 -13 41 -29 89 -34 107 -6 18 -13 42 -16 55 -5 24 -19 89
-27 123 -6 28 -16 83 -22 130 -3 22 -8 51 -10 65 -22 124 -23 525 -1 635 2 11
7 40 10 65 3 25 8 56 11 70 2 13 7 42 11 64 3 22 10 48 15 58 5 10 8 18 5 18
-3 0 7 39 20 88 31 109 30 103 38 127 5 11 15 38 23 60 8 22 16 47 18 56 4 18
31 80 76 174 16 33 29 65 29 72 0 7 4 13 9 13 5 0 13 9 16 21 16 48 160 276
215 337 8 10 23 29 32 43 60 93 325 352 453 444 16 11 34 26 41 33 7 6 15 12
18 12 5 0 97 60 106 70 14 14 60 39 60 33 0 -5 4 -3 8 4 12 19 196 111 327
163 140 56 225 83 350 111 94 22 105 24 170 34 68 11 87 13 180 20 50 4 91 8
92 9 5 4 224 -2 298 -8z"/>
<path d="M4360 7280 c-14 -5 -65 -15 -113 -24 -126 -24 -355 -104 -365 -128
-2 -4 -12 -8 -23 -8 -10 0 -19 -4 -19 -10 0 -5 -6 -10 -13 -10 -14 0 -127 -74
-197 -128 -73 -58 -214 -204 -272 -283 -56 -76 -117 -177 -116 -193 0 -5 -4
-12 -9 -15 -12 -8 -57 -112 -86 -201 -25 -76 -50 -182 -63 -275 -15 -100 -9
-336 11 -435 2 -13 7 -42 11 -64 3 -22 10 -48 15 -58 5 -10 8 -18 5 -18 -3 0
6 -30 20 -67 14 -38 29 -81 34 -96 12 -37 104 -209 143 -267 70 -103 213 -259
295 -320 19 -14 39 -30 45 -36 34 -30 152 -101 241 -144 147 -71 311 -120 456
-137 64 -7 275 -7 340 0 97 11 179 25 192 33 5 3 21 8 36 10 52 9 209 70 272
105 8 5 29 15 45 24 138 69 337 236 441 370 21 28 42 52 47 53 4 2 7 8 7 14 0
5 11 24 24 41 87 116 194 382 220 547 30 181 25 452 -10 572 -3 10 -7 29 -10
44 -26 145 -160 414 -280 564 -33 41 -200 207 -235 233 -121 92 -270 176 -386
218 -32 11 -65 23 -73 26 -8 3 -19 7 -25 9 -5 1 -37 10 -70 19 -33 9 -78 18
-100 20 -22 3 -56 7 -75 11 -58 10 -311 11 -317 1 -3 -5 -8 -5 -12 0 -3 6 -17
7 -31 3z"/>
</g>
</svg>
